<mxfile host="app.diagrams.net" modified="2023-03-09T14:39:09.570Z" agent="5.0 (Windows NT 10.0; Win64; x64) AppleWebKit/537.36 (KHTML, like Gecko) Chrome/110.0.0.0 Safari/537.36" etag="IWKezdn_gzruk2AN24GK" version="15.2.9" type="github">
  <diagram id="CXdzvPB2wVIydzKd_ate" name="Page-1">
    <mxGraphModel dx="1053" dy="579" grid="1" gridSize="10" guides="1" tooltips="1" connect="1" arrows="1" fold="1" page="1" pageScale="1" pageWidth="1200" pageHeight="1600" math="0" shadow="0">
      <root>
        <mxCell id="0" />
        <mxCell id="1" parent="0" />
        <mxCell id="1bnJfe9PC9trtTizRwwh-1" value="plato" style="rounded=0;whiteSpace=wrap;html=1;" vertex="1" parent="1">
          <mxGeometry x="30" y="80" width="110" height="40" as="geometry" />
        </mxCell>
        <mxCell id="1bnJfe9PC9trtTizRwwh-3" value="nombre" style="ellipse;whiteSpace=wrap;html=1;" vertex="1" parent="1">
          <mxGeometry x="40" y="140" width="90" height="50" as="geometry" />
        </mxCell>
        <mxCell id="1bnJfe9PC9trtTizRwwh-4" value="descripción" style="ellipse;whiteSpace=wrap;html=1;" vertex="1" parent="1">
          <mxGeometry x="40" y="200" width="90" height="50" as="geometry" />
        </mxCell>
        <mxCell id="1bnJfe9PC9trtTizRwwh-5" value="precio" style="ellipse;whiteSpace=wrap;html=1;" vertex="1" parent="1">
          <mxGeometry x="40" y="260" width="90" height="50" as="geometry" />
        </mxCell>
        <mxCell id="1bnJfe9PC9trtTizRwwh-6" value="TACC" style="ellipse;whiteSpace=wrap;html=1;" vertex="1" parent="1">
          <mxGeometry x="40" y="320" width="90" height="50" as="geometry" />
        </mxCell>
        <mxCell id="1bnJfe9PC9trtTizRwwh-7" value="calorías" style="ellipse;whiteSpace=wrap;html=1;" vertex="1" parent="1">
          <mxGeometry x="40" y="380" width="90" height="50" as="geometry" />
        </mxCell>
        <mxCell id="1bnJfe9PC9trtTizRwwh-9" value="carta" style="rounded=0;whiteSpace=wrap;html=1;" vertex="1" parent="1">
          <mxGeometry x="200" y="80" width="110" height="40" as="geometry" />
        </mxCell>
        <mxCell id="1bnJfe9PC9trtTizRwwh-10" value="bebidas" style="rounded=0;whiteSpace=wrap;html=1;" vertex="1" parent="1">
          <mxGeometry x="370" y="80" width="110" height="40" as="geometry" />
        </mxCell>
        <mxCell id="1bnJfe9PC9trtTizRwwh-11" value="categoría" style="ellipse;whiteSpace=wrap;html=1;" vertex="1" parent="1">
          <mxGeometry x="40" y="440" width="90" height="50" as="geometry" />
        </mxCell>
        <mxCell id="1bnJfe9PC9trtTizRwwh-13" value="menú sug" style="rounded=0;whiteSpace=wrap;html=1;" vertex="1" parent="1">
          <mxGeometry x="520" y="80" width="110" height="40" as="geometry" />
        </mxCell>
        <mxCell id="1bnJfe9PC9trtTizRwwh-14" value="Recetas" style="rounded=0;whiteSpace=wrap;html=1;" vertex="1" parent="1">
          <mxGeometry x="670" y="80" width="110" height="40" as="geometry" />
        </mxCell>
        <mxCell id="1bnJfe9PC9trtTizRwwh-15" value="ingredientes" style="ellipse;whiteSpace=wrap;html=1;" vertex="1" parent="1">
          <mxGeometry x="680" y="130" width="90" height="50" as="geometry" />
        </mxCell>
        <mxCell id="1bnJfe9PC9trtTizRwwh-16" value="cantidad" style="ellipse;whiteSpace=wrap;html=1;" vertex="1" parent="1">
          <mxGeometry x="680" y="190" width="90" height="50" as="geometry" />
        </mxCell>
        <mxCell id="1bnJfe9PC9trtTizRwwh-17" value="unidad de medida" style="ellipse;whiteSpace=wrap;html=1;" vertex="1" parent="1">
          <mxGeometry x="680" y="250" width="90" height="50" as="geometry" />
        </mxCell>
        <mxCell id="1bnJfe9PC9trtTizRwwh-18" value="tiempo preparación" style="ellipse;whiteSpace=wrap;html=1;" vertex="1" parent="1">
          <mxGeometry x="680" y="310" width="90" height="50" as="geometry" />
        </mxCell>
        <mxCell id="1bnJfe9PC9trtTizRwwh-19" value="indicación" style="ellipse;whiteSpace=wrap;html=1;" vertex="1" parent="1">
          <mxGeometry x="680" y="370" width="90" height="50" as="geometry" />
        </mxCell>
        <mxCell id="1bnJfe9PC9trtTizRwwh-20" value="costo" style="ellipse;whiteSpace=wrap;html=1;" vertex="1" parent="1">
          <mxGeometry x="680" y="430" width="90" height="50" as="geometry" />
        </mxCell>
        <mxCell id="1bnJfe9PC9trtTizRwwh-21" value="complejidad" style="ellipse;whiteSpace=wrap;html=1;" vertex="1" parent="1">
          <mxGeometry x="680" y="490" width="90" height="50" as="geometry" />
        </mxCell>
        <mxCell id="1bnJfe9PC9trtTizRwwh-23" value="stock" style="ellipse;whiteSpace=wrap;html=1;" vertex="1" parent="1">
          <mxGeometry x="980" y="190" width="90" height="50" as="geometry" />
        </mxCell>
        <mxCell id="1bnJfe9PC9trtTizRwwh-24" value="fecha vencimiento" style="ellipse;whiteSpace=wrap;html=1;" vertex="1" parent="1">
          <mxGeometry x="980" y="130" width="90" height="50" as="geometry" />
        </mxCell>
        <mxCell id="1bnJfe9PC9trtTizRwwh-25" value="Mercaderia" style="rounded=0;whiteSpace=wrap;html=1;" vertex="1" parent="1">
          <mxGeometry x="970" y="80" width="110" height="40" as="geometry" />
        </mxCell>
        <mxCell id="1bnJfe9PC9trtTizRwwh-27" value="almacenam" style="ellipse;whiteSpace=wrap;html=1;" vertex="1" parent="1">
          <mxGeometry x="980" y="250" width="90" height="50" as="geometry" />
        </mxCell>
        <mxCell id="1bnJfe9PC9trtTizRwwh-28" value="nombre" style="ellipse;whiteSpace=wrap;html=1;" vertex="1" parent="1">
          <mxGeometry x="380" y="140" width="90" height="50" as="geometry" />
        </mxCell>
        <mxCell id="1bnJfe9PC9trtTizRwwh-29" value="marca" style="ellipse;whiteSpace=wrap;html=1;" vertex="1" parent="1">
          <mxGeometry x="380" y="200" width="90" height="50" as="geometry" />
        </mxCell>
        <mxCell id="1bnJfe9PC9trtTizRwwh-30" value="precio" style="ellipse;whiteSpace=wrap;html=1;" vertex="1" parent="1">
          <mxGeometry x="380" y="260" width="90" height="50" as="geometry" />
        </mxCell>
        <mxCell id="1bnJfe9PC9trtTizRwwh-31" value="tipo" style="ellipse;whiteSpace=wrap;html=1;" vertex="1" parent="1">
          <mxGeometry x="380" y="320" width="90" height="50" as="geometry" />
        </mxCell>
      </root>
    </mxGraphModel>
  </diagram>
</mxfile>
